Coordinates
version=1
nRows=18
nColumns=34
inDegrees=no

Units are S.I. units (second, meters, Newtons, ...)
If the header above contains a line with 'inDegrees', this indicates whether rotational values are in degrees (yes) or radians (no).

endheader
time	pelvis_tilt	pelvis_list	pelvis_rotation	pelvis_tx	pelvis_ty	pelvis_tz	hip_flexion_r	hip_adduction_r	hip_rotation_r	knee_angle_r	ankle_angle_r	subtalar_angle_r	mtp_angle_r	hip_flexion_l	hip_adduction_l	hip_rotation_l	knee_angle_l	ankle_angle_l	subtalar_angle_l	mtp_angle_l	lumbar_extension	lumbar_bending	lumbar_rotation	arm_flex_r	arm_add_r	arm_rot_r	elbow_flex_r	pro_sup_r	arm_flex_l	arm_add_l	arm_rot_l	elbow_flex_l	pro_sup_l
9.6	-0.528366	0.0693346	-0.0692104	-0.237503	0.879087	-0.480105	0.929011	-0.060669	-0.166215	0.645047	0.371495	-0.120139	-0.100016	0.769753	-0.312703	-0.328726	0.419873	0.219872	0.18945	-0.100033	0.144623	0.0422772	-0.0113342	-0.0423404	-0.278935	0.0646353	1.01207	1.69872	-0.162031	-0.152453	-0.214609	0.910208	1.89635
9.61	-0.517601	0.0676542	-0.0716603	-0.234603	0.8829	-0.480327	0.902631	-0.0585748	-0.169663	0.622127	0.36718	-0.111283	-0.100016	0.741538	-0.3079	-0.329804	0.393064	0.2088	0.188607	-0.100033	0.147567	0.0448018	-0.00644178	-0.059791	-0.280166	0.0455314	0.991442	1.69486	-0.170488	-0.144639	-0.237364	0.880941	1.89132
9.62	-0.507169	0.0652436	-0.0741328	-0.231787	0.88649	-0.480547	0.876763	-0.055671	-0.173164	0.599417	0.36276	-0.103026	-0.100016	0.714595	-0.303938	-0.329404	0.367542	0.198015	0.18681	-0.100033	0.15051	0.0481176	-0.00125951	-0.0771111	-0.281878	0.0268268	0.972817	1.68969	-0.177969	-0.137581	-0.258581	0.852919	1.8851
9.63	-0.497114	0.0620588	-0.0765501	-0.229064	0.889852	-0.480768	0.851511	-0.0519847	-0.17674	0.577054	0.358294	-0.0953375	-0.100016	0.689126	-0.300931	-0.327629	0.343625	0.187704	0.18414	-0.100033	0.153503	0.0522295	0.00405729	-0.0941881	-0.284031	0.00869835	0.955862	1.68318	-0.184622	-0.131294	-0.278192	0.826214	1.87816
9.64	-0.487474	0.0581038	-0.0788303	-0.226437	0.892984	-0.480991	0.826975	-0.0475891	-0.180415	0.555181	0.353863	-0.0881547	-0.100016	0.665291	-0.298951	-0.324687	0.321588	0.178065	0.180818	-0.100033	0.156593	0.0570875	0.00929527	-0.110856	-0.286566	-0.00861554	0.940164	1.67545	-0.190632	-0.12578	-0.296251	0.8009	1.87102
9.65	-0.478275	0.053432	-0.0809024	-0.223911	0.895887	-0.481215	0.803239	-0.0425856	-0.184191	0.533926	0.349552	-0.0814124	-0.100016	0.643198	-0.29803	-0.320889	0.30165	0.169292	0.177199	-0.100033	0.159818	0.0625917	0.0142194	-0.126915	-0.289401	-0.0248606	0.925265	1.66686	-0.196191	-0.12103	-0.312882	0.77702	1.86419
9.66	-0.469518	0.0481452	-0.0827205	-0.221489	0.898566	-0.481438	0.780359	-0.0370889	-0.188032	0.513387	0.345437	-0.0750579	-0.100016	0.622873	-0.298161	-0.316627	0.28395	0.16155	0.173731	-0.100033	0.163182	0.0685967	0.0186283	-0.142156	-0.292428	-0.0398302	0.910707	1.65797	-0.201456	-0.117041	-0.32821	0.754562	1.85802
9.67	-0.461159	0.0423783	-0.0842644	-0.219172	0.901031	-0.481654	0.758336	-0.0312187	-0.191871	0.493631	0.341584	-0.0690482	-0.100016	0.604251	-0.299291	-0.312334	0.268531	0.154963	0.170886	-0.100033	0.166627	0.0749261	0.0223949	-0.156391	-0.295522	-0.0534246	0.896097	1.64949	-0.206505	-0.113806	-0.34231	0.733461	1.85271
9.68	-0.453104	0.0362716	-0.0855208	-0.216962	0.9033	-0.48186	0.737109	-0.025094	-0.195644	0.474696	0.338056	-0.0633387	-0.100016	0.587175	-0.301327	-0.3084	0.255335	0.149593	0.169083	-0.100033	0.170027	0.0813985	0.0254666	-0.169477	-0.298548	-0.0656754	0.881173	1.64193	-0.211337	-0.111315	-0.355195	0.713625	1.84831
9.69	-0.445225	0.0299425	-0.0864661	-0.214859	0.905392	-0.482055	0.716559	-0.0188239	-0.199325	0.456584	0.334917	-0.0578753	-0.100016	0.571421	-0.304145	-0.305122	0.244208	0.145441	0.16865	-0.100033	0.173205	0.0878549	0.0278409	-0.181327	-0.301372	-0.0767415	0.865818	1.63551	-0.215886	-0.109538	-0.366852	0.694967	1.84478
9.7	-0.43738	0.0234723	-0.0870614	-0.212862	0.907331	-0.482241	0.696526	-0.0124996	-0.202939	0.439255	0.332222	-0.0525812	-0.100016	0.556727	-0.307609	-0.302679	0.234903	0.142443	0.169803	-0.100033	0.175968	0.0941758	0.0295405	-0.191908	-0.303865	-0.0868705	0.850053	1.63017	-0.220053	-0.108422	-0.377277	0.67742	1.84207
9.71	-0.429443	0.0169114	-0.0872578	-0.21097	0.909139	-0.482422	0.676843	-0.00619785	-0.206566	0.422639	0.330014	-0.047333	-0.100016	0.542825	-0.311569	-0.301141	0.227093	0.140473	0.172648	-0.100033	0.178147	0.100283	0.0305958	-0.201241	-0.305921	-0.0963468	0.833995	1.62566	-0.223742	-0.107881	-0.386507	0.66094	1.84019
9.72	-0.421333	0.0102962	-0.0870037	-0.209176	0.910837	-0.482609	0.657374	4.28316e-06	-0.210337	0.406649	0.328325	-0.0419409	-0.100016	0.52947	-0.315865	-0.300492	0.220402	0.139357	0.177182	-0.100033	0.179635	0.106127	0.0310366	-0.209397	-0.307464	-0.105453	0.817826	1.62175	-0.226881	-0.107802	-0.394646	0.645512	1.8392
9.73	-0.413026	0.00366463	-0.0862519	-0.207476	0.912438	-0.482811	0.638039	0.00601816	-0.214428	0.391202	0.327177	-0.0361494	-0.100016	0.516466	-0.320322	-0.300652	0.214431	0.138887	0.183307	-0.100033	0.18041	0.111678	0.0308892	-0.216495	-0.308452	-0.114442	0.801763	1.61833	-0.229446	-0.108048	-0.401865	0.631145	1.8393
9.74	-0.404557	-0.00293589	-0.0849657	-0.20586	0.913952	-0.483043	0.618828	0.0117474	-0.219024	0.376224	0.326575	-0.0296773	-0.100016	0.50368	-0.324764	-0.301496	0.208794	0.138837	0.190841	-0.100033	0.180536	0.116914	0.03018	-0.2227	-0.308874	-0.123525	0.786047	1.61535	-0.231456	-0.108466	-0.408378	0.617874	1.84068
9.75	-0.396012	-0.00945078	-0.0831271	-0.204322	0.915384	-0.483314	0.599784	0.0171085	-0.224275	0.361635	0.326495	-0.0222897	-0.100016	0.491047	-0.329027	-0.302881	0.203153	0.138988	0.199547	-0.100033	0.180153	0.12182	0.0289424	-0.228206	-0.308741	-0.132866	0.770928	1.61284	-0.232973	-0.108906	-0.41438	0.605757	1.84337
9.76	-0.387513	-0.0158304	-0.080741	-0.202851	0.916734	-0.483633	0.580978	0.0220597	-0.230246	0.347328	0.326856	-0.0138735	-0.100016	0.478565	-0.332988	-0.304662	0.197244	0.139144	0.209165	-0.100033	0.179457	0.126395	0.027222	-0.233226	-0.308074	-0.142573	0.756657	1.61077	-0.234083	-0.109234	-0.419979	0.594888	1.84692
9.77	-0.379185	-0.0220426	-0.0778354	-0.201438	0.917999	-0.484003	0.562473	0.0266168	-0.236904	0.333161	0.327532	-0.00446516	-0.100016	0.466276	-0.336582	-0.306708	0.190898	0.139163	0.219449	-0.100033	0.178654	0.130658	0.0250746	-0.237969	-0.306906	-0.152693	0.743468	1.60908	-0.234882	-0.109338	-0.425222	0.585358	1.85079
